<svg xmlns="http://www.w3.org/2000/svg" xmlns:xlink="http://www.w3.org/1999/xlink" width="72" height="80" viewBox="0 0 72 80"><defs><path id="7r45a" d="M140.5 4169.7h-1.26c-.05-.57-.05-1.55-.05-1.55s.65.04 1.3.16l.01 1.39zm-1.73-1.56v1.5h-1.58v-1.72c.6.09 1.05.16 1.58.22zm-15.89-.45v-3.13l2.51.2v2.93h-2.5zm-.74-3.11v3.02h-2.95v-3.3l2.95.28zm22.91-2.13c.16.3.22.37.22.44-.4 2.63.71 4.73 2.18 6.79 1.27 1.78 2.35 3.7 3.46 5.64-1.66-.7-3.53-.91-4.64-2.76-2.13-3.52-4.42-6.95-6.66-10.43-.22-.36-.47-.68-.8-1.14l-3.4 6.9-3.77-7.86c2.42-.5 4.73-.91 7-1.53 1.24-.34 1.9 0 2.5 1.12.76 1.44 1.71 2.77 2.49 4 .53-.43.98-.78 1.42-1.17zm-23.26-10.08c-3.44 6.59-6.86 13.17-10.33 19.73-.24.46-.62 1.05-1.04 1.19-4.7 1.53-9.45 2.38-14.34 1.1a11.49 11.49 0 0 1-6.26-3.8c.07-.2.09-.3.13-.36 3.82-5.51 7.65-11.04 11.51-16.53.22-.32.71-.55 1.14-.64 1.7-.39 3.44-.73 5.26-1.1v-3.24c1.22-.26 2.36-.48 3.62-.76v5.3c.31-.45.5-.64.58-.86.51-1.2 1.38-1.67 2.62-1.88 2.6-.41 5.16-.96 7.71-1.53.98-.2 1.5 0 1.98.96 3.2 6.26 6.49 12.48 9.73 18.72.3.57.47 1.33.94 1.67.5.41 1.29.43 1.95.62l.1-.73s1.1.06 1.6.04c.08.44.12.8.2 1.17h.12l.18-1.21h1.25v1.53c3.42 1.44 6.7 2.88 10.06 4.18 1.22.48 2.56.64 3.6.9l1.1-1.7c-.68-1.42-1.45-3.02-2.25-4.64.42-.14.66-.2 1-.3l-3.16-4.98.96-.3c-1.07-1.69-2.1-3.29-3.11-4.91.3-.12.57-.2.9-.32l-3.17-5.03c.35-.14.6-.23.93-.34a507.8 507.8 0 0 0-3.33-5.22l-1.69 3.04c-.91-2.05-1.73-4-2.58-5.92-.17 0-.33.03-.5.03-.87 2-1.76 4-2.72 6.17l-1.8-2.84c.33-.13.6-.22.93-.36-1.13-1.8-2.22-3.5-3.28-5.21l.93-.4c-1.16-1.77-2.27-3.47-3.44-5.32l-3.45 5.35.91.48-1.1 1.88c-.68-1.08-1.28-2-1.88-2.93.45-.14.72-.2 1.07-.32l-3.58-5.65 1.11-.27-3.73-5.83-3.7 5.85 1.1.25-3.6 5.72 1.11.25-1.8 2.83-1.2-1.85.71-.43-2.86-4.48a355.1 355.1 0 0 0-2.53 4.04c-.1.16-.14.53-.12.55.85.35.25.78.05 1.1-.49.85-1.05 1.65-1.65 2.6l-1.5-3.08h-.38c-.65 1.49-1.32 2.97-2 4.57-1.1-1.67-2.12-3.22-3.23-4.94l-3.55 5.6c.42.1.69.14 1.04.23a1132.1 1132.1 0 0 1-3.42 5.44l1 .3-3.29 5.19 1.02.27-3.44 5.47 1.27.18c-.25.6-.4 1.14-.71 1.58-.74 1.07-.34 1.8.46 2.65 3.65 3.86 8.11 5.42 13.29 5.21 6.27-.25 11.8-3.5 17.95-4.53v-3.24h2.94c.06.91.13 1.74.2 2.58l.37-.02.18-2.54h2.56l.1 2.08h5.92l-.22-.62-8.96-18.21a6.7 6.7 0 0 1-.49.77z"/><path id="7r45b" d="M84.07 4168.06c3.9 7.3 11.28 9.43 19.04 8 3.65-.66 7.2-1.89 10.79-2.88 9.37-2.62 18.8-3.31 28.23-.34 2.58.82 5.04 1.96 7.59 2.86 1.3.45 2.66.82 4.03 1.03.78.11 1.63-.2 2.41-.32a2.27 2.27 0 0 1-2.1 2.24c-1.75.2-3.56.17-5.28-.1-4.95-.78-9.82-1.9-14.8-2.53-5.8-.75-11.5.26-17.04 2.07-5.48 1.76-11.05 2.82-16.9 2.62-7.89-.28-14.11-4.95-16.03-12.26-.03-.11.02-.2.06-.39z"/><path id="7r45c" d="M147.39 4180.5c-4.17-.56-8.34-.88-12.44-.1-3.85.75-7.63 1.93-11.42 3-4.89 1.36-9.82 2.43-14.93 2.17-4.13-.2-8.14-.97-11.92-2.78 1.33.14 2.64.37 3.96.42 4.65.19 9.1-.81 13.5-2.22 5.74-1.86 11.58-3.23 17.64-3.18 5.31.07 10.5 1.2 15.6 2.69z"/></defs><g><g transform="translate(-84 -4131)"><g><g><use fill="#7ed321" xlink:href="#7r45a"/></g><g><use fill="#83e5fe" xlink:href="#7r45b"/></g><g><use fill="#83e5fe" xlink:href="#7r45c"/></g></g><g><g fill="#fff" font-family="'Impact-Regular','Impact'" font-size="12"><text dominant-baseline="text-before-edge" font-family="Helvetica, Arial, sans-serif" transform="translate(90 4187)"><tspan letter-spacing="-.35">КРАСНОГОРКА</tspan></text></g></g><g><g fill="#fff" font-family="SFUIText-Light" font-size="6"><text dominant-baseline="text-before-edge" font-family="Helvetica, Arial, sans-serif" transform="translate(101 4202)"><tspan letter-spacing="-.35">БАЗА ОТДЫХА</tspan></text></g></g></g></g></svg>