<svg xmlns="http://www.w3.org/2000/svg" xmlns:xlink="http://www.w3.org/1999/xlink" width="38" height="38" viewBox="0 0 38 38"><defs><path id="a1k3a" d="M40.9 5c.57 0 1.07.2 1.48.62.41.41.62.9.62 1.48v33.8c0 .57-.2 1.07-.62 1.48-.41.41-.9.62-1.48.62h-9.68V28.28h4.93l.74-5.74h-5.67v-3.66c0-.92.2-1.62.59-2.08.38-.46 1.14-.7 2.26-.7l3.02-.02v-5.12c-1.04-.15-2.51-.22-4.4-.22-2.25 0-4.04.66-5.39 1.98-1.34 1.32-2.01 3.18-2.01 5.59v4.23h-4.95v5.74h4.95V43H7.1c-.57 0-1.07-.2-1.48-.62-.41-.41-.62-.9-.62-1.48V7.1c0-.57.2-1.07.62-1.48.41-.41.9-.62 1.48-.62z"/></defs><g><g transform="translate(-5 -5)"><use fill="#fff" xlink:href="#a1k3a"/></g></g></svg>