<svg xmlns="http://www.w3.org/2000/svg" xmlns:xlink="http://www.w3.org/1999/xlink" width="38" height="38" viewBox="0 0 38 38"><defs><path id="ssdla" d="M43 24c0 3.78-.04 6.4-.12 7.84-.17 3.43-1.2 6.09-3.07 7.97-1.88 1.88-4.54 2.9-7.97 3.07-1.45.08-4.06.12-7.84.12-3.78 0-6.4-.04-7.84-.12-3.43-.17-6.09-1.2-7.97-3.07-1.88-1.88-2.9-4.54-3.07-7.97C5.04 30.4 5 27.78 5 24c0-3.78.04-6.4.12-7.84.17-3.43 1.2-6.09 3.07-7.97 1.88-1.88 4.54-2.9 7.97-3.07C17.6 5.04 20.22 5 24 5c3.78 0 6.4.04 7.84.12 3.43.17 6.09 1.2 7.97 3.07 1.88 1.88 2.9 4.54 3.07 7.97.08 1.45.12 4.06.12 7.84zM24 8.41h-1.9a91.65 91.65 0 0 0-5 .07c-.99.04-1.84.12-2.54.24-.7.13-1.29.28-1.77.46a6.42 6.42 0 0 0-3.6 3.61 9.92 9.92 0 0 0-.47 1.77c-.12.7-.2 1.55-.24 2.55a91.65 91.65 0 0 0-.07 6.88v1.9a91.65 91.65 0 0 0 .07 5c.04.99.12 1.84.24 2.54.13.7.28 1.29.46 1.77a6.42 6.42 0 0 0 3.61 3.6c.48.2 1.07.34 1.77.47.7.12 1.55.2 2.55.24a91.65 91.65 0 0 0 6.89.07h1.89a91.65 91.65 0 0 0 5-.07c.99-.04 1.84-.12 2.54-.24.7-.13 1.29-.28 1.77-.46a6.42 6.42 0 0 0 3.6-3.61c.2-.48.34-1.07.47-1.77.12-.7.2-1.55.24-2.55a91.65 91.65 0 0 0 .07-6.89V22.1a91.65 91.65 0 0 0-.07-5c-.04-.99-.12-1.84-.24-2.54a9.92 9.92 0 0 0-.46-1.77 6.42 6.42 0 0 0-3.61-3.6 9.92 9.92 0 0 0-1.77-.47c-.7-.12-1.55-.2-2.55-.24A91.65 91.65 0 0 0 24 8.4zm12.42 5.45a2.2 2.2 0 0 1-.67 1.6 2.2 2.2 0 0 1-1.6.67 2.2 2.2 0 0 1-1.61-.67 2.2 2.2 0 0 1-.67-1.6c0-.63.22-1.17.67-1.61a2.2 2.2 0 0 1 1.6-.67c.63 0 1.17.22 1.61.67.45.44.67.98.67 1.6zM33.76 24c0 2.71-.95 5.01-2.85 6.91a9.4 9.4 0 0 1-6.9 2.85c-2.71 0-5.01-.95-6.91-2.85a9.4 9.4 0 0 1-2.85-6.9c0-2.71.95-5.01 2.85-6.91a9.4 9.4 0 0 1 6.9-2.85c2.71 0 5.01.95 6.91 2.85a9.4 9.4 0 0 1 2.85 6.9zm-3.44 0a6.1 6.1 0 0 0-1.85-4.48A6.1 6.1 0 0 0 24 17.67a6.1 6.1 0 0 0-4.48 1.85A6.1 6.1 0 0 0 17.67 24a6.1 6.1 0 0 0 1.85 4.47A6.1 6.1 0 0 0 24 30.32a6.1 6.1 0 0 0 4.47-1.85A6.1 6.1 0 0 0 30.32 24z"/></defs><g><g transform="translate(-5 -5)"><use fill="#fff" xlink:href="#ssdla"/></g></g></svg>