<svg xmlns="http://www.w3.org/2000/svg" xmlns:xlink="http://www.w3.org/1999/xlink" width="83" height="15" viewBox="0 0 83 15"><defs><path id="bxufa" d="M483.58 4167.39c0 .85.55 1.55 1.45 1.55.86 0 1.44-.67 1.44-1.55s-.58-1.55-1.44-1.55c-.9 0-1.45.7-1.45 1.55zm3.88 2.44h-1.04v-.6a1.8 1.8 0 0 1-1.52.72c-1.34 0-2.4-1.07-2.4-2.56 0-1.48 1.06-2.55 2.4-2.55a1.8 1.8 0 0 1 1.5.7v-.59h1.05v2.44zm36.6-.89c.86 0 1.44-.67 1.44-1.55s-.58-1.55-1.44-1.55c-.9 0-1.45.7-1.45 1.55 0 .85.55 1.55 1.45 1.55zm3.58.66v.07H527.75l.01-.02-.01-.03h-.04zm.07-.06c.03 0 .06.01.08.03.02.01.03.04.03.07 0 .02 0 .04-.02.05a.11.11 0 0 1-.07.03l.1.11h-.08l-.08-.1h-.03v.1h-.06v-.28zm.08.37a.24.24 0 0 0 0-.44.24.24 0 0 0-.1-.02c-.03 0-.06 0-.09.02a.24.24 0 0 0-.08.4.24.24 0 0 0 .18.06c.03 0 .06 0 .1-.02zm.02-.5a.31.31 0 0 1 .17.4.31.31 0 0 1-.29.19.31.31 0 1 1 0-.62.3.3 0 0 1 .12.03zm-1.34.42h-1.04v-.6a1.8 1.8 0 0 1-1.5.72c-1.35 0-2.4-1.07-2.4-2.56s1.05-2.56 2.4-2.56a1.8 1.8 0 0 1 1.5.72V4163h1.04zm-26.1-4.05zm0 0c-.75 0-1.17.49-1.28 1.2h2.48c-.1-.76-.53-1.2-1.2-1.2zm0-.95c1.35 0 2.28 1.04 2.28 2.56l-.02.41h-3.55c.15.88.76 1.2 1.43 1.2.5-.01 1-.2 1.4-.52l.5.79c-.54.47-1.24.7-1.96.68-1.43 0-2.45-1-2.45-2.56 0-1.51.98-2.55 2.38-2.55zm14.03 4.11c.86 0 1.44-.67 1.44-1.55s-.58-1.55-1.44-1.55c-.9 0-1.45.7-1.45 1.55 0 .85.55 1.55 1.45 1.55zm2.42.88h-1.04v-.59a1.8 1.8 0 0 1-1.51.72c-1.35 0-2.4-1.07-2.4-2.56s1.06-2.56 2.4-2.56a1.8 1.8 0 0 1 1.5.71v-.59h1.05zm-9.75-2.43a2.44 2.44 0 0 1 2.55-2.56c.63-.03 1.24.18 1.72.58l-.5.86c-.36-.28-.8-.43-1.25-.44-.83.01-1.44.63-1.44 1.56 0 .94.61 1.56 1.44 1.56.46 0 .9-.16 1.25-.44l.5.86c-.48.4-1.1.61-1.72.58a2.44 2.44 0 0 1-2.55-2.56zm14.15-2.42l-.32 1c-.2-.09-.43-.13-.65-.13-.68 0-1.02.44-1.02 1.25v2.73h-1.04v-4.86h1.03v.59a1.4 1.4 0 0 1 1.26-.71c.25 0 .5.04.74.13zm-29.06 1.23c-.46-.26-.97-.4-1.5-.41-.57 0-.91.21-.91.57 0 .32.36.41.81.47l.5.08c1.03.15 1.67.6 1.67 1.45 0 .93-.8 1.6-2.2 1.6-.73.01-1.46-.2-2.07-.64l.48-.82c.46.34 1.02.52 1.6.5.71 0 1.1-.21 1.1-.59 0-.27-.28-.43-.85-.5l-.5-.08c-1.07-.15-1.65-.64-1.65-1.43 0-.97.8-1.56 2-1.56.7-.03 1.37.15 1.96.5zm13.86-1.36c.25 0 .5.04.74.13l-.32 1c-.2-.09-.43-.13-.65-.13-.68 0-1.02.44-1.02 1.25v2.73h-1.04v-4.86h1.03v.59a1.4 1.4 0 0 1 1.26-.71zm-8.88 1.09h-1.7v2.2c0 .49.17.81.69.81.32 0 .64-.1.92-.27l.3.9c-.4.25-.84.38-1.3.38-1.23 0-1.66-.67-1.66-1.8v-2.22h-.97v-.97h.97v-1.48h1.05v1.48h1.7zm-16.6 3.9v-2.71c0-.83-.37-1.28-1.06-1.28-.7 0-1.17.44-1.17 1.29v2.7h-1.05v-2.71c0-.83-.33-1.28-1.04-1.28-.7 0-1.17.44-1.17 1.29v2.7H474v-4.88h1.04v.61c.3-.47.84-.75 1.4-.72.64-.03 1.25.3 1.58.87.36-.58 1-.91 1.68-.87 1.16.01 1.88.79 1.88 1.94v3.05z"/><path id="bxufb" d="M453.47 4172.24v-11.48h6.14v11.48z"/><path id="bxufc" d="M453.86 4166.5a7.4 7.4 0 0 1 2.68-5.74c-2.87-2.35-7-2-9.49.79a7.51 7.51 0 0 0 0 9.9 6.82 6.82 0 0 0 9.5.78 7.4 7.4 0 0 1-2.69-5.73z"/><path id="bxufd" d="M467.9 4166.5c0 2.8-1.54 5.34-3.96 6.56a6.8 6.8 0 0 1-7.4-.82 7.4 7.4 0 0 0 2.68-5.74 7.4 7.4 0 0 0-2.68-5.74 6.8 6.8 0 0 1 7.4-.83 7.33 7.33 0 0 1 3.95 6.57z"/><path id="bxufe" d="M467.67 4171.07v-.34h-.06l-.09.24-.08-.24h-.07v.34h.04v-.26l.08.22h.05l.08-.22v.26zm-.45 0v-.28h.09v-.06h-.23v.06h.1v.28z"/></defs><g><g transform="translate(-445 -4159)"><use fill="#fff" xlink:href="#bxufa"/></g><g transform="translate(-445 -4159)"><g><use fill="#ff5f00" xlink:href="#bxufb"/></g><g><use fill="#eb001b" xlink:href="#bxufc"/></g><g><use fill="#f79e1b" xlink:href="#bxufd"/></g><g><use fill="#f79e1b" xlink:href="#bxufe"/></g></g></g></svg>