<svg xmlns="http://www.w3.org/2000/svg" xmlns:xlink="http://www.w3.org/1999/xlink" width="23" height="38" viewBox="0 0 23 38"><defs><path id="w6wha" d="M34.92 24.66a2.15 2.15 0 0 0-2.08-.42c-.46.12-.91.37-1.38.74l-.8.53c-.53.35-1.38.7-2.55 1.07a12.5 12.5 0 0 1-6.09.3 11.34 11.34 0 0 1-4.64-1.9 4.01 4.01 0 0 0-1.38-.75 2.15 2.15 0 0 0-2.08.43 2.3 2.3 0 0 0-.6.74c-.18.38-.28.73-.31 1.05-.03.32 0 .6.1.86.09.25.27.52.56.81.28.3.58.56.9.79.32.23.75.53 1.3.88 1.61 1.03 3.85 1.7 6.72 2l-7.18 7.18c-.44.44-.66.96-.66 1.57 0 .6.22 1.12.66 1.55l.25.27c.42.43.94.64 1.55.64.6 0 1.13-.21 1.57-.64l5.66-5.68 5.66 5.68c.44.43.96.64 1.57.64.6 0 1.13-.21 1.57-.64l.25-.27c.43-.43.64-.94.64-1.55 0-.6-.21-1.13-.64-1.57l-5.66-5.66-1.55-1.53c2.83-.3 5.06-.96 6.68-2 .56-.34.99-.64 1.3-.87.33-.23.63-.5.91-.79.28-.29.47-.56.56-.81.1-.26.13-.54.1-.86a3.08 3.08 0 0 0-.32-1.05 2.3 2.3 0 0 0-.6-.74zm-7.16-13.4a4.58 4.58 0 0 1 1.39 3.37c0 1.3-.47 2.41-1.4 3.34a4.55 4.55 0 0 1-3.33 1.39c-1.3 0-2.42-.47-3.34-1.4a4.55 4.55 0 0 1-1.39-3.33c0-1.32.46-2.44 1.39-3.36a4.55 4.55 0 0 1 3.34-1.4c1.3 0 2.41.47 3.34 1.4zm3.47 10.15a9.25 9.25 0 0 0 2.83-6.78c0-2.66-.94-4.93-2.83-6.81A9.28 9.28 0 0 0 24.43 5c-2.67 0-4.94.94-6.82 2.82a9.27 9.27 0 0 0-2.82 6.8c0 2.65.94 4.91 2.82 6.8a9.28 9.28 0 0 0 6.81 2.81c2.66 0 4.93-.94 6.81-2.82z"/></defs><g><g transform="translate(-13 -5)"><use fill="#fff" xlink:href="#w6wha"/></g></g></svg>