<svg xmlns="http://www.w3.org/2000/svg" xmlns:xlink="http://www.w3.org/1999/xlink" width="40" height="13" viewBox="0 0 40 13"><defs><path id="n380a" d="M559.53 4159.23l-2.64 12.31h-3.18l2.63-12.31zm16.09 7.97l-.98-4.63-1.7 4.63zm.47 2.49h-4.1l-.64 1.85H568l4.8-11.4c.22-.56.76-.92 1.36-.91h2.73l2.56 12.31h-2.95zm-7.88-2.18c-.03 2.57-2.21 4.23-5.56 4.2a9.07 9.07 0 0 1-3.55-.66l.59-2.7c1 .55 2.14.82 3.28.79.91 0 1.92-.4 1.92-1.2 0-.53-.45-.95-1.66-1.53-1.2-.59-2.83-1.56-2.8-3.35.04-2.37 2.25-4.06 5.4-4.06 1.03 0 2.04.19 3 .55l-.55 2.6a6.08 6.08 0 0 0-3.16-.55c-.94.13-1.37.58-1.37 1.04-.03 1.43 4.46 1.62 4.46 4.87zm-13.23-8.28l-5.17 12.31h-3.38l-2.53-9.84c-.16-.62-.3-.82-.75-1.08-1-.48-2.06-.83-3.15-1.04l.06-.35h5.43c.73 0 1.36.54 1.46 1.26l1.33 7.12 3.32-8.38z"/></defs><g><g transform="translate(-540 -4159)"><g><use fill="#fff" xlink:href="#n380a"/></g></g></g></svg>