<svg xmlns="http://www.w3.org/2000/svg" xmlns:xlink="http://www.w3.org/1999/xlink" width="48" height="28" viewBox="0 0 48 28"><defs><path id="upzca" d="M47.93 11.98c.39 1.06-.86 3.51-3.75 7.35l-1.62 2.12c-.67.85-1.13 1.45-1.37 1.8-.25.35-.5.76-.77 1.24-.26.47-.36.82-.3 1.05.06.22.17.5.33.86.16.35.43.7.81 1.07a83.44 83.44 0 0 0 1.55 1.43c2.35 2.18 3.94 4.02 4.77 5.52l.17.31c.05.13.11.35.17.66.06.32.05.6-.01.85-.07.25-.28.48-.63.7-.35.2-.84.3-1.47.3l-6.4.1c-.4.09-.87.05-1.4-.12a6.08 6.08 0 0 1-1.3-.55l-.5-.3c-.5-.35-1.08-.88-1.75-1.6a44.56 44.56 0 0 1-1.7-1.94 8.28 8.28 0 0 0-1.53-1.45c-.55-.39-1.02-.52-1.42-.38l-.2.08a3.18 3.18 0 0 0-.96 1.1c-.16.3-.3.73-.42 1.3a8.24 8.24 0 0 0-.17 1.94 2.54 2.54 0 0 1-.27 1.15l-.1.12c-.3.32-.74.5-1.32.55h-2.88c-1.18.07-2.4-.07-3.65-.4a13.95 13.95 0 0 1-3.28-1.33c-.94-.54-1.8-1.1-2.58-1.65a14.85 14.85 0 0 1-1.76-1.44l-.62-.6-.7-.75a62.48 62.48 0 0 1-7.5-11.32 82.5 82.5 0 0 1-3.25-6.8 2 2 0 0 1-.15-.67.8.8 0 0 1 .07-.4l.1-.15c.25-.32.73-.48 1.43-.48l6.85-.05a2.67 2.67 0 0 1 .97.38l.13.07c.26.19.46.45.6.8a62.23 62.23 0 0 0 2.17 4.62l.4.73c.48 1 .95 1.87 1.4 2.6.45.73.85 1.3 1.21 1.71.36.41.7.73 1.04.96.33.24.62.35.85.35.23 0 .46-.04.67-.12a.43.43 0 0 0 .13-.13 4.05 4.05 0 0 0 .64-1.72c.07-.48.15-1.16.23-2.02a19.42 19.42 0 0 0-.22-4.95 4.78 4.78 0 0 0-.35-1.15l-.15-.3c-.42-.57-1.13-.93-2.13-1.08-.21-.03-.17-.23.13-.6.27-.31.58-.56.95-.75.88-.43 2.87-.63 5.97-.6 1.37.02 2.5.13 3.38.33.33.08.6.2.83.34.23.14.4.34.51.6a3.9 3.9 0 0 1 .35 1.93c0 .49 0 .94-.02 1.38l-.06 1.76c-.03.74-.04 1.43-.04 2.06 0 .18 0 .53-.03 1.05-.01.52-.02.92 0 1.2 0 .28.03.62.08 1.01.05.4.15.72.29.98.14.25.33.46.56.6.13.04.27.08.42.1.15.04.37-.05.65-.27.29-.21.6-.5.95-.86s.79-.91 1.3-1.67a40.78 40.78 0 0 0 4.37-8.3c.07-.18.16-.32.26-.45.1-.12.19-.21.27-.26l.1-.08.13-.06a2 2 0 0 1 .82-.09l7.2-.05a3.93 3.93 0 0 1 1.6.07c.41.12.67.26.77.4z"/></defs><g><g transform="translate(0 -10)"><use fill="#fff" xlink:href="#upzca"/></g></g></svg>