<svg xmlns="http://www.w3.org/2000/svg" xmlns:xlink="http://www.w3.org/1999/xlink" width="81" height="27" viewBox="0 0 81 27"><defs><path id="8cfdc" d="M781 4157.01l-1.72 4.44c-.29.74-.58 1.47-.85 2.21-.08.25-.2.34-.45.33-.7-.01-1.4-.02-2.1 0-.32.02-.4-.1-.42-.42a40.1 40.1 0 0 0-.46-3.84c-.3.73-.58 1.46-.87 2.2-.12.28-.22.56-.33.85-.47 1.2-.47 1.2-1.75 1.2-.34 0-.7-.02-1.04.01-.42.04-.56-.08-.59-.55-.1-1.84-.25-3.68-.39-5.53-.01-.2 0-.4-.03-.6-.02-.23.06-.3.3-.3.59.01 1.18.02 1.78 0 .27-.01.35.07.35.36v3.82c.34-.18.37-.39.44-.56.43-1.08.88-2.16 1.28-3.25.11-.3.25-.38.54-.37.56.02 1.12.03 1.68 0 .38-.03.45.13.47.49.08 1.23.2 2.47.39 3.71.42-1.24.87-2.48 1.27-3.74.11-.36.27-.48.62-.47.6.03 1.19.01 1.88.01"/><path id="8cfdd" d="M794.6 4160.45c.02 0 .03.04.06.05.8.48 1.03.86.93 1.58-.13.97-.67 1.6-1.5 1.8-.9.2-1.82.1-2.73.11-.68.02-1.36 0-2.04.01-.24 0-.36-.03-.3-.35.3-2.02.6-4.03.87-6.05.06-.43.2-.62.65-.6 1.06.05 2.13.02 3.2.01.33 0 .65.03.98.1.57.11 1.07.33 1.24 1 .16.66-.16 1.56-.66 1.93-.22.16-.46.27-.7.4m-2.61 2.1c.73-.01 1.17-.3 1.18-.75 0-.46-.3-.65-1.06-.64-.42 0-.54.3-.54 1.14 0 .47.31.14.42.24m.66-4.16c-.58-.02-.61.04-.67 1-.02.23 0 .35.27.35.74.02 1.21-.23 1.24-.7.03-.43-.21-.62-.84-.65"/><path id="8cfde" d="M803 4163.9l1.74-3.65c.45-.95.92-1.9 1.35-2.85.14-.3.32-.4.63-.4.88.02 1.77.02 2.65 0 .3 0 .4.1.45.41.37 2.08.76 4.15 1.16 6.21.06.31 0 .37-.28.37a27.7 27.7 0 0 0-1.94 0c-.3.01-.38-.09-.43-.4-.17-1.09-.19-1.09-1.22-1.09h-.05c-.74-.16-1.19.15-1.35.93-.1.48-.37.6-.8.56-.6-.04-1.2 0-1.8-.01-.02 0-.04-.03-.11-.07m4.74-5.33c-.36.82-.73 1.45-.98 2.21h1.05c.25.02.29-.1.25-.31l-.32-1.9"/><path id="8cfdf" d="M800.23 4157h1.73c1.63.02 2.36 1.15 1.9 2.92-.32 1.26-1.18 2.03-2.35 2.09-.5.02-1 .04-1.5 0-.33-.03-.4.16-.44.44-.06.43-.13.86-.17 1.3-.03.2-.1.25-.28.25h-1.88c-.18 0-.27 0-.23-.3.31-2.1.61-4.21.9-6.33.03-.32.14-.37.39-.37h1.93m.05 3.36c.8 0 1.27-.36 1.28-.93.01-.5-.38-.78-1.11-.79-.4 0-.59.47-.6 1.44-.01.5.3.19.43.28"/><path id="8cfdg" d="M784.94 4163.99c-.82 0-1.64-.02-2.46 0-.4.02-.53-.06-.46-.49l.72-4.44c.09-.55.18-1.1.24-1.66.03-.3.13-.4.44-.4h5.26c.32 0 .37.12.29.39l-.02.05c-.1.41.03 1-.28 1.21-.3.2-.83.07-1.26.08h-1.72c-.59-.01-.33.5-.41.76-.11.35.24.2.39.2.8.02 1.6.02 2.41.01.24 0 .37-.01.32.35-.22 1.32-.2 1.32-1.5 1.32h-1.62c-.6 0-.32.51-.4.78-.08.27.23.16.37.16.9.02 1.8.02 2.69 0 .26 0 .35.07.28.35a3.4 3.4 0 0 0-.15.85c0 .41-.17.5-.55.49-.86-.03-1.72-.01-2.58-.01"/><path id="8cfdh" d="M757 4170.1c.04 1.2-.24 2.37-.26 3.55 0 .11.06.27-.09.32-.13.06-.26.03-.4-.08-.42-.35-.9-.63-1.3-1-.53-.5-1.18-.9-1.75-1.37-.19-.29-.49-.49-.77-.68-.38-.25-.45-.53-.43-.95.06-1.05.25-2.1.14-3.15-.04-.52.17-1.02.22-1.53.03-.32.22-.2.38-.1.36.2.58.56 1.02.67.3.14.3.48.6.68.72.49 1.36 1.06 2.06 1.59.38.28.65.56.56 1.05-.05.33 0 .67.01 1"/><path id="8cfdi" d="M741.56 4159.8c-.77-1.16-1.75-2.1-2.56-3.28.27-.2.53-.28.84-.29.86 0 1.73-.03 2.6-.05.17 0 .37.05.47-.18.37.22.75.09 1.12.05.32-.03.52.08.72.34.66.86 1.34 1.69 2 2.54.08.1.14.2.27.2.2.43.5.76.8 1.1.1.1.21.18.17.34-.05.16-.2.1-.3.11-.5.07-1.01-.08-1.5.14-.97-.03-1.94.08-2.91.17-.44.04-.79 0-1.07-.45-.18-.27-.36-.57-.65-.73"/><path id="8cfdj" d="M746 4152.96c.35-.96.16-1.94.23-2.91.02-.36-.05-.74.3-1.05 1.08.87 2.12 1.77 3.28 2.55.03.06.05.14.1.17 1.21.57 1.16 1.54 1.02 2.54l-.05.34c-.04.6-.19 1.18-.02 1.77-.27.4-.07.83-.13 1.25-.02.14.03.31-.2.37-.18.04-.28-.03-.42-.15-.3-.26-.48-.65-.95-.74-.2-.23-.4-.47-.66-.67-.74-.56-1.45-1.15-2.2-1.7a.67.67 0 0 1-.3-.7c.05-.35.2-.71 0-1.07"/><path id="8cfdk" d="M819 4157.1c-.72 1.14-1.36 2.22-2.07 3.24a5.52 5.52 0 0 0-1.18 3.17c0 .35-.16.46-.49.44-.64-.03-1.28 0-1.97 0 .06-.5.07-.95.19-1.38.13-.52.01-.97-.15-1.44-.41-1.2-.8-2.42-1.24-3.62-.12-.35-.06-.42.26-.41.63.02 1.26.02 1.88 0 .26 0 .36.08.41.37.13.8.3 1.58.48 2.46.4-.82.78-1.54 1.11-2.29.18-.4.38-.58.8-.55.62.05 1.25.02 1.96.02"/><path id="8cfdl" d="M753.21 4151.61c1.2-.78 2.16-1.82 3.49-2.61 0 1.38.31 2.68.27 4 0 .12-.02.23 0 .35.13.8-.12 1.42-.93 1.94a8.88 8.88 0 0 0-2.06 1.7c-.44.21-.77.54-1.13.84-.1.08-.16.17-.3.17-.2 0-.16-.15-.17-.25l-.21-1.47c.06-.81.02-1.63-.12-2.43-.15-.87.03-1.56.95-2.02.09-.04.14-.14.21-.22"/><path id="8cfdm" d="M759.11 4156c.1.24.28.16.44.17 1.05.05 2.1-.01 3.14.23.1.03.26-.06.3.11.04.16-.06.26-.16.37l-2.19 2.69c-.05.06-.07.16-.1.24-.38.14-.55.53-.79.82-.22.27-.46.42-.79.35-.71-.14-1.44-.07-2.16-.17-.4-.06-.8-.1-1.2.07l-1.22-.22c-.12-.03-.29.06-.36-.1-.07-.18.07-.27.16-.4.25-.41.7-.65.84-1.16.2-.06.3-.23.43-.38l1.82-2.25c.19-.24.39-.34.7-.32.38.03.77.17 1.14-.05"/><path id="8cfdn" d="M760.56 4163.17c.04.11.07.22.16.32.71.87 1.4 1.76 2.1 2.64.1.11.2.2.17.36-.04.22-.21.1-.33.14-1.18.28-2.39.15-3.58.26-1.1.35-1.83-.17-2.46-1.14a7.8 7.8 0 0 0-1.45-1.74c-.29-.62-.86-.98-1.17-1.59.22-.13.43-.03.61-.08.4-.1.82.12 1.18-.2.24.09.49.08.74.06.85-.07 1.7-.11 2.56-.2.33-.03.53.12.73.37.22.3.39.66.74.8"/><path id="8cfdo" d="M749.81 4171.55c-1 .7-1.94 1.47-2.85 2.26-.13.1-.24.23-.42.18-.23-.06-.14-.25-.16-.39-.14-.8-.16-1.62-.16-2.43 0-.36-.24-.68-.18-1.04.09-.08.1-.19.07-.28-.38-1.07.29-1.69 1.13-2.25.2-.13.37-.28.55-.43.42-.37.94-.66 1.26-1.12.45-.15.68-.53 1.04-.77.15-.1.25-.35.5-.26.25.09.11.32.13.49.05.45-.06.91.1 1.36.05 1.07.09 2.15.18 3.22.02.31-.07.5-.33.69-.3.23-.67.42-.86.77"/><path id="8cfdp" d="M743 4166.94c-.24-.02-.49-.07-.74-.06-1.07.08-2.13-.22-3.26-.25.77-1.33 1.81-2.31 2.62-3.52l.65-.8c.12-.15.22-.32.44-.31.91.04 1.83-.05 2.74.08.28.04.55.06.83-.05.45.22.93.2 1.41.22.1 0 .26-.07.3.1.04.15-.1.24-.18.31-.37.31-.65.7-.81 1.2-.78.62-1.3 1.54-1.9 2.36-.51.7-1.08.87-1.8.74-.1-.02-.2-.02-.3-.02"/><path id="8cfda" d="M738 4159.08h9.98v3.85H738z"/><path id="8cfdr" d="M746.38 4161.91c-.28.1-.56.09-.84.05-.93-.12-1.85-.04-2.78-.07-.22-.01-.32.15-.45.3l-.66.74-3.65-1.9 3.6-1.95c.3.16.48.45.66.72.28.44.64.47 1.08.43.98-.08 1.96-.2 2.95-.16l1.69.94-1.6.9"/><path id="8cfds" d="M755.74 4164.58c.57.43 1.04.99 1.45 1.56.63.87 1.37 1.34 2.46 1.02L761 4171l-3.85-1.27c0-.33-.06-.67 0-1 .07-.48-.17-.75-.5-1.03-.62-.52-1.18-1.09-1.82-1.57-.26-.19-.25-.53-.52-.67.12-.52-.28-.93-.31-1.46l1.74.58"/><path id="8cfdb" d="M749.07 4148.03h3.86v9.95h-3.86z"/><path id="8cfdu" d="M752.93 4151.64c-.07.08-.12.18-.2.22-.88.47-1.06 1.17-.92 2.04.14.82.18 1.64.12 2.47l-.93 1.6c-.36-.48-.5-1.07-.91-1.5-.16-.6-.02-1.2.02-1.8 0-.1.03-.22.05-.34.13-1 .18-1.98-.98-2.56-.06-.03-.08-.11-.11-.17l1.94-3.57 1.92 3.61"/><path id="8cfdv" d="M743.33 4167.16c.1 0 .2 0 .3.02.72.12 1.3-.04 1.8-.65.6-.72 1.14-1.52 1.92-2.07.57-.02 1.05-.4 1.65-.46l-.53 1.7c-.28.46-.74.74-1.13 1.1-.16.15-.31.3-.49.43-.75.56-1.35 1.17-1 2.23.02.09 0 .2-.07.28L742 4171l1.33-3.84"/><path id="8cfdw" d="M759.77 4155.72c-.37.2-.76.07-1.13.05a.75.75 0 0 0-.7.29c-.58.68-1.19 1.35-1.79 2.03-.12.13-.23.29-.42.34l-1.73.57.53-1.7a8.16 8.16 0 0 1 1.82-1.7c.72-.53.94-1.15.82-1.96-.02-.12 0-.24 0-.35L761 4152l-1.23 3.72"/><path id="8cfdx" d="M745.79 4153.28c.16.35.03.71 0 1.07-.03.29.03.5.27.7.67.55 1.3 1.15 1.97 1.71.23.2.4.44.6.67-.08.56.37 1.01.37 1.57-.57-.09-1.04-.45-1.6-.44-.14 0-.2-.1-.27-.18-.67-.77-1.36-1.52-2.03-2.28-.2-.24-.4-.34-.73-.31-.37.03-.76.15-1.13-.05l-1.05-3.17-.19-.57 3.79 1.28"/><path id="8cfdy" d="M760.41 4164c-.35-.15-.52-.52-.74-.81-.2-.27-.4-.41-.74-.38-.85.09-1.72.12-2.58.2-.25.02-.5.03-.74-.06L754 4162l1.52-.9c.39-.17.79-.12 1.19-.07.71.1 1.44.03 2.15.18.32.07.57-.08.78-.36.24-.3.41-.7.78-.85l3.58 2-3.59 2"/><path id="8cfdz" d="M750 4171.4c.19-.34.56-.53.87-.76.25-.2.35-.37.32-.68-.09-1.07-.13-2.14-.18-3.21l.99-1.75.95 1.63c.11 1.05-.08 2.1-.14 3.14-.02.42.05.7.43.95.28.19.57.38.76.67l-2 3.61-2-3.6"/><clipPath id="8cfdq"><use xlink:href="#8cfda"/></clipPath><clipPath id="8cfdt"><use xlink:href="#8cfdb"/></clipPath></defs><g><g transform="translate(-738 -4148)"><g><use fill="#f6e927" xlink:href="#8cfdc"/></g><g><use fill="#f6e927" xlink:href="#8cfdd"/></g><g><use fill="#f6e927" xlink:href="#8cfde"/></g><g><use fill="#f6e927" xlink:href="#8cfdf"/></g><g><use fill="#f6e927" xlink:href="#8cfdg"/></g><g><use fill="#f6e927" xlink:href="#8cfdh"/></g><g><use fill="#f6e927" xlink:href="#8cfdi"/></g><g><use fill="#f6e927" xlink:href="#8cfdj"/></g><g><g><use fill="#f6e927" xlink:href="#8cfdk"/></g></g><g><use fill="#f6e927" xlink:href="#8cfdl"/></g><g><use fill="#f6e927" xlink:href="#8cfdm"/></g><g><use fill="#f6e927" xlink:href="#8cfdn"/></g><g><use fill="#f6e927" xlink:href="#8cfdo"/></g><g><use fill="#f6e927" xlink:href="#8cfdp"/></g><g><g/><g clip-path="url(#8cfdq)"><use fill="#0b0c0c" xlink:href="#8cfdr"/></g></g><g><use fill="#0b0c0c" xlink:href="#8cfds"/></g><g><g/><g clip-path="url(#8cfdt)"><use fill="#0b0c0c" xlink:href="#8cfdu"/></g></g><g><use fill="#0b0c0c" xlink:href="#8cfdv"/></g><g><use fill="#0b0c0c" xlink:href="#8cfdw"/></g><g><use fill="#0b0c0c" xlink:href="#8cfdx"/></g><g><use fill="#0b0c0c" xlink:href="#8cfdy"/></g><g><use fill="#0b0c0c" xlink:href="#8cfdz"/></g></g></g></svg>